# xmcd
# 
# Track frame offsets:
#     150
#     17228
#     39546
#     57187
#     71752
#     90324
#     110795
#     129332
#     147635
#     169030
#     186285
#     206836
#     228452
#     253830
#     267413
#     285488
#     305001
# 
# Disc length: 4259
# 
# Revision: 0
# Processed by: cddbd v1.5.2PL0 Copyright (c) Steve Scherf et al.
# Submitted via: fre:ac v1.0.31
# 
DISCID=0610a111
DTITLE=Blue Blot - The best of Blunk
DYEAR=2000
DGENRE=Blues
TTITLE0=No No No
TTITLE1=Bridge to your heart
TTITLE2=Who is he and what is he to you
TTITLE3=Yo yo man
TTITLE4=Hold the line
TTITLE5=Shopping for love
TTITLE6=September
TTITLE7=I'll be home at Christmas day
TTITLE8=Wher do we go from here
TTITLE9=Pretty good
TTITLE10=These arms of mine
TTITLE11=Irs Blues
TTITLE12=Nothing like a woman
TTITLE13=Put some rhythm in my blues
TTITLE14=Closing in on the fire
TTITLE15=With you in mind
TTITLE16=Dance on the blunk
EXTD=
EXTT0=
EXTT1=
EXTT2=
EXTT3=
EXTT4=
EXTT5=
EXTT6=
EXTT7=
EXTT8=
EXTT9=
EXTT10=
EXTT11=
EXTT12=
EXTT13=
EXTT14=
EXTT15=
EXTT16=
PLAYORDER=
